<?xml version="1.0" encoding="UTF-8" standalone="no"?>
<!-- Created with Inkscape (http://www.inkscape.org/) -->

<svg
   xmlns:dc="http://purl.org/dc/elements/1.1/"
   xmlns:cc="http://creativecommons.org/ns#"
   xmlns:rdf="http://www.w3.org/1999/02/22-rdf-syntax-ns#"
   xmlns:svg="http://www.w3.org/2000/svg"
   xmlns="http://www.w3.org/2000/svg"
   xmlns:sodipodi="http://sodipodi.sourceforge.net/DTD/sodipodi-0.dtd"
   xmlns:inkscape="http://www.inkscape.org/namespaces/inkscape"
   width="1000"
   height="1000"
   viewBox="0 0 1000 1000"
   version="1.1"
   id="svg8"
   inkscape:version="0.92.4 (5da689c313, 2019-01-14)"
   sodipodi:docname="loonatheworld.svg">
  <defs
     id="defs2">
    <clipPath
       clipPathUnits="userSpaceOnUse"
       id="clipPath856">
      <g
         style="fill:#422ac1;fill-opacity:1"
         id="g860"
         inkscape:label="Clip">
        <circle
           style="fill:#422ac1;fill-opacity:1;stroke:none;stroke-width:3.81361341;stroke-linejoin:miter;stroke-miterlimit:4;stroke-dasharray:none;stroke-opacity:1"
           id="circle858"
           cx="500"
           cy="532.41663"
           r="250" />
      </g>
    </clipPath>
  </defs>
  <sodipodi:namedview
     id="base"
     pagecolor="#ffffff"
     bordercolor="#666666"
     borderopacity="1.0"
     inkscape:pageopacity="0.0"
     inkscape:pageshadow="2"
     inkscape:zoom="15.839192"
     inkscape:cx="478.53715"
     inkscape:cy="751.86644"
     inkscape:document-units="px"
     inkscape:current-layer="layer1"
     showgrid="false"
     units="px"
     inkscape:pagecheckerboard="true"
     inkscape:window-width="1920"
     inkscape:window-height="1027"
     inkscape:window-x="1912"
     inkscape:window-y="-8"
     inkscape:window-maximized="1"
     showguides="false" />
  <metadata
     id="metadata5">
    <rdf:RDF>
      <cc:Work
         rdf:about="">
        <dc:format>image/svg+xml</dc:format>
        <dc:type
           rdf:resource="http://purl.org/dc/dcmitype/StillImage" />
        <dc:title />
      </cc:Work>
    </rdf:RDF>
  </metadata>
  <g
     inkscape:label="Layer 1"
     inkscape:groupmode="layer"
     id="layer1"
     transform="translate(0,-32.41665)">
    <circle
       style="fill:#2a53c1;fill-opacity:1;stroke:#000000;stroke-width:1;stroke-linejoin:miter;stroke-miterlimit:4;stroke-dasharray:none;stroke-opacity:1"
       id="path877"
       cx="500"
       cy="532.41669"
       r="250" />
    <path
       style="fill:#29984c;fill-opacity:1;stroke:none;stroke-width:3.18923998;stroke-linejoin:miter;stroke-miterlimit:4;stroke-dasharray:none;stroke-opacity:0.28021979"
       d="M 656.26562 305.23633 C 655.49508 305.40812 654.69744 305.58292 653.94727 305.77344 C 651.95853 306.27851 650.05649 306.89267 648.32227 307.85547 C 647.45515 308.33687 646.63057 308.90523 645.85742 309.58984 C 645.08427 310.27446 644.36209 311.07642 643.70312 312.02344 C 643.04416 312.97046 642.44839 314.06342 641.92383 315.33203 C 641.39927 316.60064 640.9461 318.04397 640.57617 319.69336 C 640.20624 321.34275 639.91969 323.19775 639.72461 325.28711 C 639.52953 327.37647 639.42578 329.70055 639.42578 332.28906 C 639.42578 334.87758 639.52165 337.27673 639.69922 339.5 C 639.87678 341.72327 640.13729 343.77109 640.46875 345.65625 C 640.80021 347.54141 641.20239 349.26372 641.66406 350.83789 C 642.12573 352.41206 642.64663 353.83859 643.21484 355.12891 C 643.78305 356.41922 644.39775 357.57384 645.04883 358.60742 C 645.6999 359.641 646.38739 360.55344 647.09766 361.35742 C 647.80792 362.1614 648.54133 362.85748 649.28711 363.45898 C 650.03289 364.06049 650.79121 364.56603 651.54883 364.99219 C 653.06406 365.8445 654.57947 366.3738 656 366.6875 C 657.42053 367.0012 658.74639 367.09969 659.88281 367.0918 C 662.15566 367.07601 663.66992 366.63477 663.66992 366.63477 C 663.66992 366.63477 664.68129 366.38091 666.46484 366.57031 C 667.35662 366.66501 668.44057 366.87095 669.68945 367.27344 C 670.93833 367.67592 672.35164 368.27627 673.89844 369.16016 C 675.44523 370.04404 677.12659 371.2111 678.91211 372.75 C 680.69763 374.2889 682.58767 376.19886 684.55273 378.56641 C 686.5178 380.93395 688.55716 383.7591 690.64258 387.12891 C 692.72799 390.49871 694.85928 394.4133 697.00586 398.95898 C 698.07915 401.23183 698.78544 403.19711 699.16992 404.88867 C 699.5544 406.58023 699.61641 407.99889 699.40234 409.17773 C 699.29531 409.76715 699.11865 410.29544 698.87891 410.76953 C 698.63916 411.24363 698.33578 411.66391 697.97461 412.03125 C 697.25226 412.76593 696.29857 413.29522 695.1582 413.6543 C 694.01784 414.01337 692.69078 414.20187 691.22266 414.25391 C 689.75453 414.30594 688.14507 414.2216 686.43945 414.03516 C 683.02822 413.66227 679.2337 412.88029 675.41406 411.96484 C 671.59442 411.04939 667.75008 409.99938 664.24414 409.08984 C 660.7382 408.18031 657.56975 407.41177 655.09961 407.05664 C 653.86454 406.87907 652.80362 406.80527 651.96289 406.86914 C 651.12217 406.93302 650.5026 407.13394 650.14648 407.50781 C 649.79037 407.88169 649.69922 408.42725 649.91797 409.17969 C 650.13672 409.93212 650.66494 410.89224 651.54883 412.0918 C 652.43271 413.29135 652.95717 414.48679 653.16211 415.67969 C 653.36705 416.87258 653.253 418.06325 652.85742 419.25195 C 652.46184 420.44066 651.78486 421.62747 650.86719 422.81445 C 649.94952 424.00143 648.79103 425.18728 647.42969 426.375 C 646.06835 427.56272 644.50393 428.75243 642.77734 429.94336 C 641.05076 431.13428 639.16184 432.32684 637.14844 433.52344 C 633.12164 435.91663 628.59805 438.32323 623.89453 440.75391 C 619.19101 443.18459 614.30753 445.63906 609.55469 448.12695 C 604.80184 450.61485 600.18063 453.13633 596.00586 455.70117 C 593.91847 456.98359 591.94242 458.27668 590.11719 459.58203 C 588.29196 460.88739 586.61746 462.2044 585.13281 463.53516 C 583.64816 464.86591 582.35275 466.21169 581.28711 467.57031 C 580.22147 468.92894 579.38657 470.30049 578.81836 471.68945 C 578.25015 473.07841 577.94093 474.34275 577.86719 475.48633 C 577.79345 476.6299 577.95431 477.65392 578.32227 478.56641 C 578.69022 479.4789 579.26656 480.2789 580.02344 480.97461 C 580.78031 481.67032 581.71753 482.26067 582.81055 482.75391 C 583.90356 483.24714 585.15096 483.64415 586.52734 483.94922 C 587.90373 484.25429 589.40865 484.46841 591.01562 484.59961 C 594.22957 484.86201 597.85224 484.7906 601.67188 484.44336 C 605.49151 484.09612 609.50859 483.47331 613.51172 482.63086 C 617.51484 481.78841 621.50513 480.72714 625.26953 479.50391 C 629.03393 478.28068 632.57232 476.89583 635.67578 475.40625 C 637.22751 474.66146 638.67119 473.88953 639.97852 473.09961 C 641.28584 472.30969 642.45664 471.50044 643.4668 470.67969 C 645.4871 469.03819 647.80827 467.4908 650.36719 466.07422 C 652.92611 464.65764 655.724 463.37259 658.69922 462.25195 C 661.67443 461.13132 664.82652 460.17554 668.0957 459.42188 C 671.36489 458.66821 674.75057 458.11645 678.19141 457.80078 C 681.63224 457.48511 685.12898 457.40626 688.61914 457.59961 C 692.1093 457.79296 695.59261 458.25785 699.00977 459.03125 C 700.71834 459.41795 702.41073 459.88271 704.07812 460.42773 C 705.74552 460.97276 707.38713 461.59831 708.99805 462.31055 C 710.60896 463.02278 712.18936 463.82066 713.72852 464.70898 C 715.26767 465.59731 716.76666 466.5771 718.21875 467.65039 C 719.67084 468.72368 721.05867 469.44485 722.38672 469.85547 C 723.71476 470.26609 724.98297 470.36599 726.19141 470.19336 C 727.39984 470.02073 728.54931 469.57491 729.64258 468.89844 C 730.73584 468.22196 731.77333 467.3138 732.75586 466.21289 C 733.73839 465.11198 734.66673 463.81898 735.54297 462.37305 C 736.41921 460.92712 737.24319 459.32873 738.01758 457.61719 C 739.56635 454.19411 740.916 450.31959 742.08398 446.31055 C 742.43746 445.09727 742.66366 443.87358 742.98438 442.64453 A 250 250 0 0 0 656.26562 305.23633 z "
       id="path856"
       transform="translate(0,32.41665)" />
    <path
       style="fill:#29984c;fill-opacity:1;stroke:none;stroke-width:3.18923998;stroke-linejoin:miter;stroke-miterlimit:4;stroke-dasharray:none;stroke-opacity:0.28021979"
       d="M 744.55664 550.53711 L 725.28906 536.33984 C 725.28906 536.33984 724.15307 534.82447 721.94336 532.66211 C 720.8385 531.58093 719.46564 530.3392 717.83203 529.04297 C 716.19842 527.74674 714.30478 526.39582 712.1582 525.10156 C 710.01163 523.8073 707.61251 522.5694 704.96875 521.49414 C 702.32499 520.41888 699.43571 519.50642 696.31055 518.86719 C 694.74797 518.54757 693.12724 518.29687 691.44727 518.12695 C 689.7673 517.95703 688.02781 517.86809 686.23242 517.875 C 684.43703 517.88191 682.58461 517.98445 680.67578 518.19531 C 678.76695 518.40617 676.80156 518.72603 674.78125 519.16797 C 670.74064 520.05185 665.34425 521.66204 659.07617 523.80664 C 652.8081 525.95124 645.66934 528.62978 638.14844 531.65234 C 630.62754 534.67491 622.72292 538.04082 614.92383 541.55859 C 607.12474 545.07637 599.43076 548.74672 592.32812 552.37695 C 585.22549 556.00719 578.71475 559.59709 573.2832 562.95703 C 570.56743 564.637 568.12111 566.26015 566.00586 567.80078 C 563.89061 569.34141 562.1058 570.7989 560.71289 572.15234 C 559.31998 573.50579 558.32021 574.75463 557.77148 575.87305 C 557.49712 576.43226 557.3354 576.95969 557.29492 577.45117 C 557.25445 577.94265 557.33433 578.39863 557.54297 578.81641 C 557.75161 579.23418 558.08952 579.61309 558.5625 579.95117 C 559.03548 580.28926 559.64393 580.58548 560.39648 580.83789 C 561.9016 581.34272 563.98053 581.67061 566.69531 581.79688 C 569.4101 581.92314 572.34583 581.86472 575.4668 581.64844 C 578.58776 581.43215 581.89398 581.05876 585.34961 580.55664 C 588.80524 580.05452 592.41013 579.42263 596.12891 578.69141 C 599.84768 577.96018 603.6814 577.12822 607.5918 576.22461 C 615.41259 574.41738 623.54496 572.32245 631.70312 570.16602 C 639.86129 568.00958 648.04537 565.79211 655.96875 563.74023 C 663.89213 561.68836 671.55348 559.80212 678.66992 558.30859 C 682.22814 557.56183 685.65118 556.91272 688.90039 556.39062 C 692.1496 555.86853 695.22507 555.47312 698.09375 555.23242 C 700.96243 554.99172 703.62439 554.90649 706.04102 555.00391 C 708.45764 555.10132 710.63039 555.38275 712.52344 555.875 C 713.46996 556.12113 714.34622 556.41992 715.14844 556.77539 C 715.95066 557.13086 716.67719 557.54177 717.32617 558.01367 C 717.97515 558.48558 718.54641 559.01785 719.0332 559.61328 C 719.52 560.20871 719.92261 560.8677 720.23828 561.59375 C 721.50097 564.49794 722.27547 566.97592 722.65625 569.17773 C 722.84664 570.27864 722.93915 571.31142 722.94531 572.29297 C 722.95148 573.27451 722.87069 574.2058 722.7168 575.10547 C 722.40902 576.9048 721.80495 578.5767 721.00195 580.27344 C 720.19896 581.97018 719.19665 583.68995 718.0918 585.58398 C 716.98694 587.47802 715.77977 589.54628 714.56641 591.9375 C 713.35304 594.32872 712.13439 597.04413 711.00586 600.23242 C 709.87733 603.42072 708.83862 607.08193 707.98828 611.36719 C 707.56311 613.50982 707.18461 615.80815 706.86523 618.28125 C 706.54586 620.75435 706.28511 623.40309 706.0957 626.24414 C 705.9063 629.08519 705.42103 631.66118 704.67969 633.98828 C 703.93835 636.31538 702.94188 638.39359 701.72852 640.23633 C 700.51515 642.07907 699.08596 643.68625 697.48047 645.07422 C 695.87498 646.46219 694.09349 647.63095 692.17578 648.59375 C 690.25807 649.55655 688.20471 650.31364 686.05469 650.88086 C 683.90466 651.44808 681.65791 651.82415 679.35547 652.02539 C 677.05303 652.22663 674.6933 652.25233 672.31836 652.11719 C 669.94342 651.98204 667.55309 651.68608 665.18555 651.24414 C 662.818 650.8022 660.4736 650.21524 658.19336 649.49609 C 655.91312 648.77695 653.69702 647.92573 651.58398 646.95898 C 649.47095 645.99224 647.46162 644.90937 645.5957 643.72461 C 643.72978 642.53985 642.00765 641.25404 640.46875 639.88086 C 638.92985 638.50768 637.57339 637.04762 636.44141 635.51562 C 635.30942 633.98363 634.40102 632.37998 633.75586 630.71875 C 633.1107 629.05752 632.72882 627.33899 632.65039 625.57812 C 632.57197 623.81726 632.79702 622.0145 633.36523 620.18359 C 633.64934 619.26814 633.82649 618.38733 633.9043 617.54297 C 633.98211 616.69861 633.96063 615.89034 633.8457 615.11719 C 633.73078 614.34404 633.52261 613.60611 633.22852 612.9043 C 632.93442 612.20248 632.5554 611.53661 632.0957 610.90625 C 631.17631 609.64553 629.93793 608.52688 628.4375 607.55273 C 626.93707 606.57859 625.17413 605.74909 623.20117 605.0625 C 621.22822 604.37591 619.04595 603.83359 616.70898 603.43555 C 614.37202 603.0375 611.87957 602.78234 609.28711 602.67383 C 606.69465 602.56532 604.00312 602.60315 601.26367 602.78516 C 598.52422 602.96716 595.7369 603.29407 592.95898 603.76758 C 590.18106 604.24109 587.411 604.86095 584.70312 605.62695 C 581.99525 606.39295 579.34964 607.30576 576.82031 608.36523 C 574.29099 609.42471 571.87898 610.63044 569.63672 611.98438 C 567.39446 613.33831 565.32325 614.84084 563.47656 616.49023 C 561.62988 618.13962 560.00666 619.93699 558.66406 621.88281 C 557.99276 622.85573 557.39212 623.8649 556.86719 624.91211 C 556.34226 625.95932 555.89429 627.04439 555.5293 628.16602 C 555.1643 629.28764 554.88291 630.44641 554.69141 631.64258 C 554.49991 632.83874 554.39702 634.07097 554.39258 635.3418 C 554.38814 636.61263 554.48155 637.92196 554.67773 639.26758 C 554.87392 640.61319 555.17361 641.99549 555.58398 643.41602 C 555.99436 644.83654 556.4899 646.20112 557.06641 647.51172 C 557.64291 648.82232 558.29965 650.07943 559.03125 651.28516 C 559.76285 652.49088 560.56966 653.6441 561.44531 654.75 C 562.32097 655.8559 563.26672 656.91464 564.27539 657.92578 C 566.29274 659.94806 568.56367 661.78543 571.04688 663.45898 C 573.53008 665.13254 576.22515 666.64253 579.08594 668.00781 C 581.94672 669.3731 584.97493 670.59395 588.125 671.69141 C 591.27507 672.78886 594.54737 673.76274 597.89844 674.63281 C 601.2495 675.50289 604.67881 676.26804 608.14258 676.95117 C 611.60635 677.63431 615.10361 678.23484 618.5918 678.77148 C 625.56816 679.84477 632.50454 680.66649 639.04883 681.39648 C 645.59312 682.12648 651.74645 682.76435 657.15234 683.47461 C 659.85529 683.82974 662.37034 684.20241 664.65625 684.61328 C 665.70407 684.80162 666.51622 685.03399 667.46289 685.24023 A 250 250 0 0 0 744.55664 550.53711 z "
       id="path859"
       transform="translate(0,32.41665)" />
    <path
       style="fill:#29984c;fill-opacity:1;stroke:none;stroke-width:3.18923998;stroke-linejoin:miter;stroke-miterlimit:4;stroke-dasharray:none;stroke-opacity:0.28021979"
       d="M 629.18359 713.41797 C 629.49099 712.36669 629.69289 711.31551 629.75391 710.27148 C 629.81605 709.20806 629.73891 708.15257 629.50586 707.10938 C 629.2728 706.06618 628.88266 705.03554 628.31445 704.02539 C 627.74624 703.01524 627.14366 702.13099 626.50195 701.36523 C 625.86025 700.59948 625.17911 699.95169 624.45898 699.41406 C 623.73886 698.87643 622.97927 698.44883 622.17578 698.12305 C 621.3723 697.79726 620.52654 697.57357 619.63477 697.44336 C 618.74299 697.31314 617.80531 697.27709 616.82031 697.32617 C 615.83532 697.37525 614.8019 697.51056 613.71875 697.72266 C 611.55245 698.14684 609.18422 698.88079 606.5957 699.85938 C 604.00719 700.83796 601.19862 702.06012 598.14844 703.46289 C 595.09825 704.86566 591.80718 706.44779 588.25586 708.14453 C 584.70454 709.84127 580.89269 711.65318 576.80078 713.51367 C 572.70887 715.37417 568.33797 717.2837 563.66602 719.17773 C 561.33004 720.12475 559.24092 720.80679 557.375 721.25391 C 555.50908 721.70103 553.86614 721.91304 552.41602 721.91797 C 550.96589 721.9229 549.70967 721.72134 548.62109 721.3418 C 547.53252 720.96225 546.61137 720.40554 545.83008 719.69922 C 545.04879 718.9929 544.40716 718.13749 543.87891 717.16211 C 543.35065 716.18673 542.93495 715.09103 542.60547 713.9043 C 541.9465 711.53083 541.63081 708.79254 541.44141 705.91992 C 541.252 703.0473 541.18905 700.03901 541.03516 697.12891 C 540.88127 694.2188 540.63641 691.40584 540.08398 688.91992 C 539.80777 687.67696 539.45528 686.51715 538.99805 685.4668 C 538.54081 684.41645 537.97962 683.47581 537.28711 682.67578 C 536.5946 681.87575 535.7711 681.21466 534.78906 680.72266 C 533.80702 680.23065 532.66567 679.90752 531.33984 679.78125 C 530.01402 679.65498 528.71661 679.39481 527.44727 679.02734 C 526.17792 678.65988 524.93697 678.18526 523.72656 677.63086 C 521.30575 676.52206 519.00619 675.09351 516.83594 673.5625 C 512.49544 670.50048 508.67494 667.02939 505.45508 664.88281 C 504.65011 664.34617 503.88306 663.89066 503.1543 663.54688 C 502.42554 663.20309 501.73603 662.96972 501.08594 662.87305 C 500.43585 662.77637 499.82481 662.81679 499.25586 663.02148 C 498.68691 663.22618 498.15918 663.59593 497.67383 664.15625 C 497.18848 664.71657 496.74498 665.4673 496.3457 666.4375 C 495.94643 667.4077 495.59199 668.59691 495.28125 670.03125 C 494.65977 672.89993 494.21738 676.75197 493.96484 681.80273 C 493.83857 684.32812 493.58191 686.47789 493.20508 688.28906 C 492.82824 690.10023 492.33033 691.57225 491.72266 692.74023 C 491.11499 693.90822 490.3969 694.77136 489.57812 695.36719 C 488.75935 695.96302 487.84023 696.29202 486.83008 696.38672 C 485.81993 696.48142 484.71891 696.34321 483.53711 696.00781 C 482.35531 695.67241 481.09348 695.13979 479.75977 694.44531 C 477.09233 693.05635 474.1411 691.02021 470.98438 688.62109 C 464.67092 683.82287 457.5365 677.57215 450.21289 672.14258 C 446.55109 669.42779 442.84165 666.91874 439.16406 664.89844 C 437.32527 663.88828 435.49479 662.99952 433.68164 662.26953 C 431.8685 661.53954 430.07245 660.9667 428.30469 660.58789 C 427.4208 660.39849 426.54754 660.29845 425.68555 660.28125 C 424.82355 660.26405 423.97255 660.33034 423.13281 660.47461 C 421.45334 660.76315 419.8187 661.3643 418.23047 662.23438 C 416.64224 663.10445 415.10144 664.2436 413.60742 665.60938 C 412.1134 666.97515 410.66638 668.56809 409.26953 670.34375 C 407.87268 672.11941 406.52524 674.07802 405.22852 676.17773 C 403.93179 678.27745 402.68582 680.51752 401.49219 682.85547 C 399.10491 687.53137 396.92592 692.59704 394.96875 697.71094 C 393.01158 702.82483 391.27683 707.98626 389.77344 712.85156 C 388.63869 716.52386 387.76869 719.75198 386.9043 722.93945 A 250 250 0 0 0 500 750 A 250 250 0 0 0 629.18359 713.41797 z "
       id="path863"
       transform="translate(0,32.41665)" />
    <path
       style="fill:#29984c;fill-opacity:1;stroke:none;stroke-width:3.18923998;stroke-linejoin:miter;stroke-miterlimit:4;stroke-dasharray:none;stroke-opacity:0.28021979"
       d="M 348.62305 698.69531 C 349.88958 694.77335 351.70901 689.68899 352.54297 686.85352 C 352.85864 685.78023 352.9766 684.60718 352.92383 683.34375 C 352.87105 682.08032 352.64824 680.72638 352.2793 679.28711 C 351.91035 677.84784 351.3965 676.32346 350.76367 674.72266 C 350.13085 673.12185 349.37958 671.44335 348.53516 669.69531 C 346.84631 666.19924 344.786 662.42301 342.56445 658.42383 C 340.34291 654.42465 337.95902 650.2023 335.62305 645.81445 C 333.28707 641.4266 330.99894 636.87303 328.9668 632.21094 C 327.95073 629.87989 326.99841 627.52268 326.13672 625.14453 C 325.27503 622.76638 324.50268 620.36798 323.84766 617.95703 C 323.19264 615.54608 322.65584 613.12281 322.25977 610.69336 C 321.86369 608.26391 321.61023 605.82817 321.52539 603.39453 C 321.44055 600.96089 321.52406 598.529 321.80273 596.10547 C 322.08141 593.68194 322.55357 591.2663 323.24805 588.86719 C 323.94253 586.46808 324.45235 584.00982 324.79688 581.50195 C 325.1414 578.99408 325.32092 576.43724 325.35742 573.83984 C 325.39392 571.24245 325.2882 568.60518 325.05859 565.9375 C 324.82899 563.26982 324.47526 560.57225 324.02148 557.85352 C 323.11393 552.41605 321.80076 546.89539 320.24805 541.36914 C 318.69533 535.8429 316.90348 530.31075 315.04102 524.84961 C 313.17855 519.38847 311.24502 513.998 309.4082 508.75586 C 307.57138 503.51372 305.83124 498.42003 304.35547 493.55078 C 302.8797 488.68153 301.66799 484.03778 300.88867 479.69531 C 300.49901 477.52408 300.21711 475.4267 300.06445 473.41602 C 299.9118 471.40533 299.88936 469.48129 300.01562 467.65039 C 300.14189 465.81949 300.39076 464.10248 300.74219 462.48047 C 301.09362 460.85845 301.54635 459.33003 302.08398 457.87695 C 302.62161 456.42387 303.24287 455.04676 303.92773 453.72266 C 304.6126 452.39856 305.36117 451.12765 306.1543 449.89258 C 309.32681 444.9523 313.21051 440.56507 316.55664 435.45117 C 317.39317 434.1727 318.19534 432.84819 318.94531 431.45898 C 319.69528 430.06978 320.39314 428.61606 321.01758 427.07617 C 321.64202 425.53628 322.19435 423.91021 322.6543 422.17969 C 323.11424 420.44916 323.4818 418.61346 323.73828 416.65234 C 323.99477 414.69123 324.14024 412.6047 324.1543 410.37305 C 324.16835 408.14139 324.05054 405.76481 323.7832 403.22266 C 323.51587 400.6805 323.09746 397.97268 322.50977 395.08008 C 321.92207 392.18748 321.16577 389.11112 320.21875 385.82812 C 319.27173 382.54513 318.24991 379.53743 317.16602 376.78516 C 316.08212 374.03289 314.93486 371.53448 313.74023 369.26953 C 312.54561 367.00458 311.30265 364.97338 310.02344 363.15234 C 308.74422 361.33131 307.42946 359.72131 306.0918 358.30078 C 304.75413 356.88025 303.39341 355.64936 302.02344 354.58594 C 300.9416 353.74617 299.85303 353.08856 298.76562 352.44727 A 250 250 0 0 0 250 500 A 250 250 0 0 0 348.62305 698.69531 z "
       id="path866"
       transform="translate(0,32.41665)" />
    <path
       style="fill:#2a53c1;fill-opacity:1;stroke:none;stroke-width:3.18923998;stroke-linejoin:miter;stroke-miterlimit:4;stroke-dasharray:none;stroke-opacity:0.28021979"
       d="M 534.08008 252.62695 C 535.92906 254.94145 537.87137 257.21096 540.08594 259.31836 C 542.63401 261.74312 545.43613 264.01187 548.51562 266.08594 C 550.05539 267.12297 551.66354 268.11091 553.3457 269.04492 C 555.02786 269.97893 556.78433 270.85894 558.61523 271.67969 C 560.44614 272.50044 562.16129 273.39392 563.76758 274.35352 C 565.37387 275.31311 566.86957 276.33965 568.25977 277.42773 C 569.64996 278.51582 570.93459 279.66488 572.11719 280.87109 C 573.29979 282.07731 574.38172 283.34031 575.36523 284.6543 C 576.34875 285.96828 577.2344 287.33274 578.02734 288.74414 C 578.82029 290.15554 579.51998 291.61287 580.13086 293.11133 C 580.74174 294.60979 581.26385 296.14945 581.70117 297.72461 C 582.13849 299.29977 582.4914 300.91124 582.76367 302.55273 C 583.30821 305.83573 583.53141 309.24035 583.4668 312.72656 C 583.40218 316.21277 583.04906 319.78016 582.44336 323.38672 C 581.83766 326.99328 580.9791 330.63916 579.90039 334.2832 C 578.82168 337.92725 577.52272 341.5693 576.03906 345.16797 C 574.5554 348.76664 572.88695 352.32254 571.06641 355.79297 C 569.24586 359.2634 567.27295 362.64888 565.18359 365.9082 C 563.09424 369.16752 560.88776 372.30027 558.59766 375.26562 C 556.30755 378.23098 553.93451 381.02867 551.51172 383.61719 C 549.08893 386.2057 546.61631 388.58603 544.12891 390.71484 C 541.6415 392.84366 539.1402 394.72039 536.65625 396.30664 C 534.1723 397.8929 531.7054 399.18761 529.29297 400.14844 C 526.88054 401.10927 524.52089 401.7377 522.24805 401.99023 C 521.11163 402.1165 520.02097 402.14711 518.97266 402.08789 C 517.92434 402.02867 516.91868 401.87942 515.95312 401.64648 C 514.98762 401.41355 514.06184 401.09604 513.17383 400.70117 C 512.28581 400.3063 511.43691 399.83409 510.62109 399.28906 C 508.98946 398.19901 507.49575 396.81926 506.12109 395.19922 C 504.74644 393.57918 503.49018 391.71793 502.33008 389.66211 C 501.16998 387.60629 500.1071 385.35637 499.11914 382.95898 C 498.13118 380.5616 497.21758 378.01779 496.35938 375.37305 C 494.6429 370.08356 493.1435 364.39336 491.69141 358.67969 C 490.23931 352.96601 488.83566 347.22794 487.30859 341.84375 C 486.54506 339.15165 485.7502 336.54849 484.9043 334.08008 C 484.05839 331.61167 483.16015 329.27747 482.18945 327.12695 C 481.21876 324.97643 480.17501 323.0099 479.03711 321.27148 C 477.89921 319.53307 476.66784 318.02313 475.32031 316.79102 C 473.97278 315.55891 472.50973 314.60425 470.91016 313.97266 C 470.11037 313.65686 469.277 313.42144 468.40625 313.27344 C 467.5355 313.12544 466.62671 313.06414 465.67969 313.0957 C 463.78565 313.15884 461.88373 313.45524 459.9707 313.94922 C 458.05768 314.4432 456.13374 315.13496 454.19531 315.99023 C 452.25689 316.84551 450.30423 317.86469 448.33398 319.01172 C 446.36374 320.15874 444.37565 321.4335 442.36719 322.80273 C 438.35025 325.54119 434.25128 328.65524 430.04297 331.86523 C 425.83466 335.07523 421.51739 338.3807 417.06641 341.50586 C 414.84091 343.06844 412.58289 344.58639 410.28711 346.02344 C 407.99133 347.46049 405.65763 348.81662 403.28516 350.05859 C 400.91268 351.30057 398.50051 352.4289 396.04492 353.40625 C 393.58933 354.3836 391.09003 355.21033 388.54492 355.85352 C 385.99981 356.4967 383.40862 356.95584 380.76758 357.19531 C 378.12653 357.43478 375.43675 357.4545 372.69336 357.2207 C 369.94997 356.98691 367.15293 356.49926 364.30078 355.72266 C 361.44863 354.94605 358.54154 353.88115 355.57422 352.49219 C 352.6069 351.10323 349.85307 349.63934 347.29688 348.11523 C 344.74067 346.59113 342.38221 345.00661 340.20703 343.37695 C 338.03185 341.74729 336.03909 340.07281 334.21484 338.36719 C 332.3906 336.66157 330.73386 334.92581 329.23047 333.17383 C 327.72708 331.42184 326.37669 329.65352 325.16406 327.88477 C 324.26315 326.57068 323.51271 325.26028 322.75781 323.95117 A 250 250 0 0 0 298.76562 352.44727 C 299.85303 353.08856 300.9416 353.74617 302.02344 354.58594 C 303.39341 355.64936 304.75413 356.88025 306.0918 358.30078 C 307.42946 359.72131 308.74422 361.33131 310.02344 363.15234 C 311.30265 364.97338 312.54561 367.00458 313.74023 369.26953 C 314.93486 371.53448 316.08212 374.03289 317.16602 376.78516 C 318.24991 379.53743 319.27173 382.54513 320.21875 385.82812 C 321.16577 389.11112 321.92207 392.18748 322.50977 395.08008 C 323.09746 397.97268 323.51587 400.6805 323.7832 403.22266 C 324.05054 405.76481 324.16835 408.14139 324.1543 410.37305 C 324.14024 412.6047 323.99477 414.69123 323.73828 416.65234 C 323.4818 418.61346 323.11424 420.44916 322.6543 422.17969 C 322.19435 423.91021 321.64202 425.53628 321.01758 427.07617 C 320.39314 428.61606 319.69528 430.06978 318.94531 431.45898 C 318.19534 432.84819 317.39317 434.1727 316.55664 435.45117 C 313.21051 440.56507 309.32681 444.9523 306.1543 449.89258 C 305.36117 451.12765 304.6126 452.39856 303.92773 453.72266 C 303.24287 455.04676 302.62161 456.42387 302.08398 457.87695 C 301.54635 459.33003 301.09362 460.85845 300.74219 462.48047 C 300.39076 464.10248 300.14189 465.81949 300.01562 467.65039 C 299.88936 469.48129 299.9118 471.40533 300.06445 473.41602 C 300.21711 475.4267 300.49901 477.52408 300.88867 479.69531 C 301.66799 484.03778 302.8797 488.68153 304.35547 493.55078 C 305.83124 498.42003 307.57138 503.51372 309.4082 508.75586 C 311.24502 513.998 313.17855 519.38847 315.04102 524.84961 C 316.90348 530.31075 318.69533 535.8429 320.24805 541.36914 C 321.80076 546.89539 323.11393 552.41605 324.02148 557.85352 C 324.47526 560.57225 324.82899 563.26982 325.05859 565.9375 C 325.2882 568.60518 325.39392 571.24245 325.35742 573.83984 C 325.32092 576.43724 325.1414 578.99408 324.79688 581.50195 C 324.45235 584.00982 323.94253 586.46808 323.24805 588.86719 C 322.55357 591.2663 322.08141 593.68194 321.80273 596.10547 C 321.52406 598.529 321.44055 600.96089 321.52539 603.39453 C 321.61023 605.82817 321.86369 608.26391 322.25977 610.69336 C 322.65584 613.12281 323.19264 615.54608 323.84766 617.95703 C 324.50268 620.36798 325.27503 622.76638 326.13672 625.14453 C 326.99841 627.52268 327.95073 629.87989 328.9668 632.21094 C 330.99894 636.87303 333.28707 641.4266 335.62305 645.81445 C 337.95902 650.2023 340.34291 654.42465 342.56445 658.42383 C 344.786 662.42301 346.84631 666.19924 348.53516 669.69531 C 349.37958 671.44335 350.13085 673.12185 350.76367 674.72266 C 351.3965 676.32346 351.91035 677.84784 352.2793 679.28711 C 352.64824 680.72638 352.87105 682.08032 352.92383 683.34375 C 352.9766 684.60718 352.85864 685.78023 352.54297 686.85352 C 351.70901 689.68899 349.88958 694.77335 348.62305 698.69531 A 250 250 0 0 0 386.9043 722.93945 C 387.76869 719.75198 388.63869 716.52386 389.77344 712.85156 C 391.27683 707.98626 393.01158 702.82483 394.96875 697.71094 C 396.92592 692.59704 399.10491 687.53137 401.49219 682.85547 C 402.68582 680.51752 403.93179 678.27745 405.22852 676.17773 C 406.52524 674.07802 407.87268 672.11941 409.26953 670.34375 C 410.66638 668.56809 412.1134 666.97514 413.60742 665.60938 C 415.10144 664.2436 416.64224 663.10444 418.23047 662.23438 C 419.8187 661.36429 421.45334 660.76315 423.13281 660.47461 C 423.97255 660.33034 424.82355 660.26405 425.68555 660.28125 C 426.54754 660.29845 427.4208 660.39849 428.30469 660.58789 C 430.07245 660.9667 431.8685 661.53954 433.68164 662.26953 C 435.49479 662.99952 437.32527 663.88828 439.16406 664.89844 C 442.84165 666.91874 446.55109 669.42779 450.21289 672.14258 C 457.5365 677.57215 464.67092 683.82287 470.98438 688.62109 C 474.1411 691.02021 477.09233 693.05635 479.75977 694.44531 C 481.09348 695.13979 482.35531 695.67241 483.53711 696.00781 C 484.71891 696.34321 485.81993 696.48142 486.83008 696.38672 C 487.84023 696.29202 488.75936 695.96302 489.57812 695.36719 C 490.39691 694.77136 491.11499 693.90822 491.72266 692.74023 C 492.33033 691.57225 492.82824 690.10023 493.20508 688.28906 C 493.58191 686.47789 493.83857 684.32812 493.96484 681.80273 C 494.21738 676.75197 494.65977 672.89993 495.28125 670.03125 C 495.59199 668.59691 495.94643 667.4077 496.3457 666.4375 C 496.74498 665.4673 497.18848 664.71657 497.67383 664.15625 C 498.15918 663.59593 498.68691 663.22618 499.25586 663.02148 C 499.82481 662.81679 500.43585 662.77637 501.08594 662.87305 C 501.73603 662.96972 502.42554 663.20308 503.1543 663.54688 C 503.88306 663.89066 504.65011 664.34617 505.45508 664.88281 C 508.67494 667.02939 512.49544 670.50048 516.83594 673.5625 C 519.00619 675.09351 521.30575 676.52206 523.72656 677.63086 C 524.93697 678.18526 526.17792 678.65988 527.44727 679.02734 C 528.71661 679.39481 530.01402 679.65498 531.33984 679.78125 C 532.66567 679.90752 533.80702 680.23065 534.78906 680.72266 C 535.7711 681.21466 536.5946 681.87575 537.28711 682.67578 C 537.97962 683.47581 538.54081 684.41645 538.99805 685.4668 C 539.45528 686.51715 539.80777 687.67696 540.08398 688.91992 C 540.63641 691.40584 540.88127 694.2188 541.03516 697.12891 C 541.18905 700.03901 541.252 703.0473 541.44141 705.91992 C 541.63081 708.79254 541.9465 711.53083 542.60547 713.9043 C 542.93495 715.09103 543.35065 716.18673 543.87891 717.16211 C 544.40716 718.13749 545.04879 718.9929 545.83008 719.69922 C 546.61137 720.40554 547.53252 720.96225 548.62109 721.3418 C 549.70967 721.72134 550.96589 721.9229 552.41602 721.91797 C 553.86614 721.91304 555.50908 721.70103 557.375 721.25391 C 559.24092 720.80679 561.33004 720.12475 563.66602 719.17773 C 568.33797 717.2837 572.70887 715.37417 576.80078 713.51367 C 580.89269 711.65318 584.70454 709.84127 588.25586 708.14453 C 591.80718 706.44779 595.09825 704.86566 598.14844 703.46289 C 601.19862 702.06012 604.00719 700.83795 606.5957 699.85938 C 609.18422 698.88079 611.55245 698.14684 613.71875 697.72266 C 614.8019 697.51056 615.83532 697.37525 616.82031 697.32617 C 617.80531 697.27709 618.74299 697.31314 619.63477 697.44336 C 620.52654 697.57357 621.3723 697.79726 622.17578 698.12305 C 622.97927 698.44883 623.73886 698.87643 624.45898 699.41406 C 625.17911 699.95169 625.86025 700.59948 626.50195 701.36523 C 627.14366 702.13099 627.74624 703.01524 628.31445 704.02539 C 628.88266 705.03554 629.2728 706.06617 629.50586 707.10938 C 629.73891 708.15256 629.81605 709.20806 629.75391 710.27148 C 629.69289 711.31551 629.49099 712.36669 629.18359 713.41797 A 250 250 0 0 0 667.46289 685.24023 C 666.51622 685.03399 665.70407 684.80162 664.65625 684.61328 C 662.37034 684.20241 659.85529 683.82974 657.15234 683.47461 C 651.74645 682.76435 645.59312 682.12648 639.04883 681.39648 C 632.50454 680.66649 625.56816 679.84477 618.5918 678.77148 C 615.10361 678.23484 611.60635 677.63431 608.14258 676.95117 C 604.67881 676.26804 601.2495 675.50289 597.89844 674.63281 C 594.54737 673.76274 591.27507 672.78886 588.125 671.69141 C 584.97493 670.59395 581.94672 669.3731 579.08594 668.00781 C 576.22515 666.64253 573.53008 665.13254 571.04688 663.45898 C 568.56367 661.78543 566.29274 659.94806 564.27539 657.92578 C 563.26672 656.91464 562.32097 655.8559 561.44531 654.75 C 560.56966 653.6441 559.76285 652.49088 559.03125 651.28516 C 558.29965 650.07943 557.64291 648.82232 557.06641 647.51172 C 556.4899 646.20112 555.99436 644.83654 555.58398 643.41602 C 555.17361 641.99549 554.87392 640.61319 554.67773 639.26758 C 554.48155 637.92196 554.38814 636.61263 554.39258 635.3418 C 554.39702 634.07097 554.49991 632.83874 554.69141 631.64258 C 554.88291 630.44641 555.1643 629.28764 555.5293 628.16602 C 555.89429 627.04439 556.34226 625.95932 556.86719 624.91211 C 557.39212 623.8649 557.99276 622.85573 558.66406 621.88281 C 560.00666 619.93699 561.62988 618.13962 563.47656 616.49023 C 565.32325 614.84084 567.39446 613.3383 569.63672 611.98438 C 571.87898 610.63044 574.29099 609.42471 576.82031 608.36523 C 579.34964 607.30576 581.99527 606.39295 584.70312 605.62695 C 587.411 604.86095 590.18106 604.24109 592.95898 603.76758 C 595.7369 603.29407 598.52422 602.96716 601.26367 602.78516 C 604.00312 602.60315 606.69465 602.56532 609.28711 602.67383 C 611.87957 602.78234 614.37202 603.0375 616.70898 603.43555 C 619.04595 603.83359 621.22822 604.37591 623.20117 605.0625 C 625.17413 605.74909 626.93707 606.57859 628.4375 607.55273 C 629.93793 608.52688 631.17631 609.64553 632.0957 610.90625 C 632.5554 611.53661 632.93442 612.20248 633.22852 612.9043 C 633.52261 613.60611 633.73078 614.34404 633.8457 615.11719 C 633.96063 615.89034 633.98211 616.69861 633.9043 617.54297 C 633.82649 618.38733 633.64934 619.26814 633.36523 620.18359 C 632.79702 622.0145 632.57197 623.81727 632.65039 625.57812 C 632.72882 627.33899 633.1107 629.05752 633.75586 630.71875 C 634.40102 632.37998 635.30942 633.98365 636.44141 635.51562 C 637.57339 637.04764 638.92985 638.50768 640.46875 639.88086 C 642.00765 641.25404 643.72978 642.53985 645.5957 643.72461 C 647.46162 644.90937 649.47095 645.99224 651.58398 646.95898 C 653.69702 647.92573 655.91312 648.77695 658.19336 649.49609 C 660.4736 650.21524 662.818 650.8022 665.18555 651.24414 C 667.55309 651.68608 669.94342 651.98204 672.31836 652.11719 C 674.6933 652.25233 677.05303 652.22663 679.35547 652.02539 C 681.65791 651.82415 683.90466 651.44808 686.05469 650.88086 C 688.20471 650.31364 690.25807 649.55655 692.17578 648.59375 C 694.09349 647.63095 695.87498 646.46219 697.48047 645.07422 C 699.08596 643.68625 700.51515 642.07907 701.72852 640.23633 C 702.94188 638.39359 703.93835 636.31538 704.67969 633.98828 C 705.42103 631.66118 705.9063 629.08519 706.0957 626.24414 C 706.28511 623.40309 706.54586 620.75435 706.86523 618.28125 C 707.18461 615.80815 707.56311 613.50982 707.98828 611.36719 C 708.83862 607.08193 709.87733 603.42072 711.00586 600.23242 C 712.13439 597.04413 713.35304 594.32872 714.56641 591.9375 C 715.77977 589.54628 716.98694 587.47802 718.0918 585.58398 C 719.19665 583.68995 720.19896 581.97018 721.00195 580.27344 C 721.80495 578.5767 722.40902 576.9048 722.7168 575.10547 C 722.87069 574.2058 722.95148 573.27451 722.94531 572.29297 C 722.93915 571.31142 722.84664 570.27864 722.65625 569.17773 C 722.27547 566.97592 721.50097 564.49794 720.23828 561.59375 C 719.92261 560.8677 719.52 560.20871 719.0332 559.61328 C 718.54641 559.01785 717.97515 558.48558 717.32617 558.01367 C 716.67719 557.54177 715.95066 557.13086 715.14844 556.77539 C 714.34622 556.41992 713.46996 556.12113 712.52344 555.875 C 710.63039 555.38275 708.45764 555.10132 706.04102 555.00391 C 703.62439 554.90649 700.96243 554.99172 698.09375 555.23242 C 695.22507 555.47312 692.1496 555.86855 688.90039 556.39062 C 685.65118 556.91273 682.22814 557.56183 678.66992 558.30859 C 671.55348 559.80212 663.89213 561.68836 655.96875 563.74023 C 648.04537 565.79211 639.8613 568.00958 631.70312 570.16602 C 623.54496 572.32245 615.41259 574.41738 607.5918 576.22461 C 603.6814 577.12822 599.84768 577.96018 596.12891 578.69141 C 592.41013 579.42263 588.80524 580.05452 585.34961 580.55664 C 581.89398 581.05876 578.58776 581.43215 575.4668 581.64844 C 572.34583 581.86472 569.4101 581.92314 566.69531 581.79688 C 563.98053 581.67061 561.9016 581.34272 560.39648 580.83789 C 559.64393 580.58548 559.03548 580.28926 558.5625 579.95117 C 558.08952 579.61309 557.75161 579.23418 557.54297 578.81641 C 557.33433 578.39863 557.25445 577.94265 557.29492 577.45117 C 557.3354 576.95969 557.49712 576.43226 557.77148 575.87305 C 558.32021 574.75463 559.31998 573.50579 560.71289 572.15234 C 562.1058 570.7989 563.89061 569.34141 566.00586 567.80078 C 568.12111 566.26015 570.56743 564.637 573.2832 562.95703 C 578.71475 559.59709 585.2255 556.00719 592.32812 552.37695 C 599.43076 548.74672 607.12474 545.07637 614.92383 541.55859 C 622.72292 538.04082 630.62754 534.67491 638.14844 531.65234 C 645.66934 528.62978 652.8081 525.95124 659.07617 523.80664 C 665.34425 521.66204 670.74064 520.05185 674.78125 519.16797 C 676.80156 518.72603 678.76695 518.40617 680.67578 518.19531 C 682.58461 517.98445 684.43703 517.88191 686.23242 517.875 C 688.02781 517.86809 689.7673 517.95703 691.44727 518.12695 C 693.12724 518.29687 694.74797 518.54757 696.31055 518.86719 C 699.43571 519.50642 702.32499 520.41888 704.96875 521.49414 C 707.61251 522.5694 710.01163 523.8073 712.1582 525.10156 C 714.30478 526.39582 716.19842 527.74674 717.83203 529.04297 C 719.46564 530.3392 720.8385 531.58093 721.94336 532.66211 C 724.15307 534.82447 725.28906 536.33984 725.28906 536.33984 L 744.55664 550.53711 A 250 250 0 0 0 750 500 A 250 250 0 0 0 742.98438 442.64453 C 742.66366 443.87358 742.43746 445.09727 742.08398 446.31055 C 740.916 450.31959 739.56635 454.19411 738.01758 457.61719 C 737.24319 459.32873 736.41921 460.92712 735.54297 462.37305 C 734.66673 463.81898 733.73839 465.11198 732.75586 466.21289 C 731.77333 467.3138 730.73584 468.22196 729.64258 468.89844 C 728.54931 469.57491 727.39984 470.02073 726.19141 470.19336 C 724.98297 470.36599 723.71476 470.26609 722.38672 469.85547 C 721.05867 469.44485 719.67084 468.72368 718.21875 467.65039 C 716.76666 466.5771 715.26767 465.59731 713.72852 464.70898 C 712.18936 463.82066 710.60896 463.02278 708.99805 462.31055 C 707.38713 461.59831 705.74552 460.97276 704.07812 460.42773 C 702.41073 459.88271 700.71834 459.41795 699.00977 459.03125 C 695.59261 458.25785 692.1093 457.79296 688.61914 457.59961 C 685.12898 457.40626 681.63224 457.48511 678.19141 457.80078 C 674.75057 458.11645 671.36489 458.6682 668.0957 459.42188 C 664.82652 460.17554 661.67443 461.13132 658.69922 462.25195 C 655.724 463.37259 652.92611 464.65764 650.36719 466.07422 C 647.80827 467.4908 645.4871 469.03819 643.4668 470.67969 C 642.45664 471.50044 641.28584 472.30969 639.97852 473.09961 C 638.67119 473.88953 637.22751 474.66146 635.67578 475.40625 C 632.57232 476.89583 629.03393 478.28068 625.26953 479.50391 C 621.50513 480.72714 617.51484 481.78841 613.51172 482.63086 C 609.50859 483.47331 605.49148 484.09612 601.67188 484.44336 C 597.85224 484.7906 594.22957 484.86201 591.01562 484.59961 C 589.40865 484.46841 587.90373 484.25429 586.52734 483.94922 C 585.15096 483.64415 583.90356 483.24714 582.81055 482.75391 C 581.71753 482.26067 580.78031 481.67032 580.02344 480.97461 C 579.26656 480.2789 578.69022 479.4789 578.32227 478.56641 C 577.95431 477.65392 577.79345 476.6299 577.86719 475.48633 C 577.94093 474.34275 578.25015 473.07841 578.81836 471.68945 C 579.38657 470.30049 580.22147 468.92894 581.28711 467.57031 C 582.35275 466.21169 583.64816 464.86591 585.13281 463.53516 C 586.61746 462.2044 588.29196 460.88739 590.11719 459.58203 C 591.94242 458.27668 593.91847 456.98359 596.00586 455.70117 C 600.18063 453.13633 604.80184 450.61485 609.55469 448.12695 C 614.30753 445.63906 619.19101 443.18459 623.89453 440.75391 C 628.59805 438.32323 633.12164 435.91663 637.14844 433.52344 C 639.16184 432.32684 641.05076 431.13428 642.77734 429.94336 C 644.50393 428.75243 646.06835 427.56272 647.42969 426.375 C 648.79103 425.18728 649.94952 424.00143 650.86719 422.81445 C 651.78486 421.62747 652.46184 420.44066 652.85742 419.25195 C 653.253 418.06325 653.36705 416.87258 653.16211 415.67969 C 652.95717 414.48679 652.43271 413.29135 651.54883 412.0918 C 650.66494 410.89224 650.13672 409.93212 649.91797 409.17969 C 649.69922 408.42725 649.79037 407.88169 650.14648 407.50781 C 650.5026 407.13394 651.12217 406.93302 651.96289 406.86914 C 652.80362 406.80527 653.86454 406.87907 655.09961 407.05664 C 657.56975 407.41177 660.7382 408.18031 664.24414 409.08984 C 667.75008 409.99938 671.59442 411.04939 675.41406 411.96484 C 679.2337 412.88029 683.02822 413.66227 686.43945 414.03516 C 688.14507 414.2216 689.75453 414.30594 691.22266 414.25391 C 692.69078 414.20187 694.01784 414.01337 695.1582 413.6543 C 696.29857 413.29522 697.25226 412.76593 697.97461 412.03125 C 698.33578 411.66391 698.63916 411.24363 698.87891 410.76953 C 699.11865 410.29544 699.29531 409.76715 699.40234 409.17773 C 699.61641 407.99889 699.5544 406.58023 699.16992 404.88867 C 698.78544 403.19711 698.07915 401.23183 697.00586 398.95898 C 694.85928 394.4133 692.72799 390.49871 690.64258 387.12891 C 688.55716 383.7591 686.5178 380.93395 684.55273 378.56641 C 682.58767 376.19886 680.69763 374.2889 678.91211 372.75 C 677.12659 371.2111 675.44523 370.04404 673.89844 369.16016 C 672.35164 368.27627 670.93833 367.67592 669.68945 367.27344 C 668.44057 366.87095 667.35662 366.66501 666.46484 366.57031 C 664.68129 366.38091 663.66992 366.63477 663.66992 366.63477 C 663.66992 366.63477 662.15566 367.07601 659.88281 367.0918 C 658.74639 367.09969 657.42053 367.0012 656 366.6875 C 654.57947 366.3738 653.06406 365.8445 651.54883 364.99219 C 650.79121 364.56603 650.03289 364.06049 649.28711 363.45898 C 648.54133 362.85748 647.80792 362.1614 647.09766 361.35742 C 646.38739 360.55344 645.6999 359.641 645.04883 358.60742 C 644.39775 357.57384 643.78305 356.41922 643.21484 355.12891 C 642.64663 353.83859 642.12573 352.41206 641.66406 350.83789 C 641.20239 349.26372 640.80021 347.54141 640.46875 345.65625 C 640.13729 343.77109 639.87678 341.72327 639.69922 339.5 C 639.52165 337.27673 639.42578 334.87758 639.42578 332.28906 C 639.42578 329.70055 639.52953 327.37647 639.72461 325.28711 C 639.91969 323.19775 640.20624 321.34275 640.57617 319.69336 C 640.9461 318.04397 641.39927 316.60064 641.92383 315.33203 C 642.44839 314.06342 643.04419 312.97046 643.70312 312.02344 C 644.36209 311.07642 645.08427 310.27446 645.85742 309.58984 C 646.63057 308.90523 647.45515 308.33687 648.32227 307.85547 C 650.05649 306.89267 651.95853 306.27851 653.94727 305.77344 C 654.69744 305.58292 655.49509 305.40812 656.26562 305.23633 A 250 250 0 0 0 534.08008 252.62695 z "
       id="path853"
       transform="translate(0,32.41665)" />
    <path
       style="fill:#29984c;fill-opacity:1;stroke:none;stroke-width:3.18923998;stroke-linejoin:miter;stroke-miterlimit:4;stroke-dasharray:none;stroke-opacity:0.28021979"
       d="M 322.75781 323.95117 C 323.51271 325.26028 324.26315 326.57068 325.16406 327.88477 C 326.37669 329.65352 327.72708 331.42184 329.23047 333.17383 C 330.73386 334.92581 332.3906 336.66157 334.21484 338.36719 C 336.03909 340.07281 338.03185 341.74729 340.20703 343.37695 C 342.38221 345.00661 344.74067 346.59113 347.29688 348.11523 C 349.85308 349.63934 352.6069 351.10323 355.57422 352.49219 C 358.54154 353.88115 361.44863 354.94605 364.30078 355.72266 C 367.15293 356.49926 369.94997 356.98691 372.69336 357.2207 C 375.43675 357.4545 378.12653 357.43478 380.76758 357.19531 C 383.40862 356.95584 385.99981 356.4967 388.54492 355.85352 C 391.09003 355.21033 393.58933 354.3836 396.04492 353.40625 C 398.50051 352.4289 400.91268 351.30057 403.28516 350.05859 C 405.65763 348.81662 407.99133 347.46049 410.28711 346.02344 C 412.58289 344.58639 414.84091 343.06844 417.06641 341.50586 C 421.51739 338.3807 425.83466 335.07523 430.04297 331.86523 C 434.25128 328.65524 438.35025 325.54119 442.36719 322.80273 C 444.37565 321.4335 446.36374 320.15874 448.33398 319.01172 C 450.30423 317.86469 452.25689 316.84551 454.19531 315.99023 C 456.13374 315.13496 458.05768 314.4432 459.9707 313.94922 C 461.88373 313.45524 463.78565 313.15884 465.67969 313.0957 C 466.62671 313.06414 467.5355 313.12544 468.40625 313.27344 C 469.277 313.42144 470.11037 313.65686 470.91016 313.97266 C 472.50973 314.60425 473.97278 315.55891 475.32031 316.79102 C 476.66784 318.02313 477.89921 319.53307 479.03711 321.27148 C 480.17501 323.0099 481.21876 324.97643 482.18945 327.12695 C 483.16015 329.27747 484.05839 331.61167 484.9043 334.08008 C 485.7502 336.54849 486.54506 339.15165 487.30859 341.84375 C 488.83566 347.22794 490.23931 352.96601 491.69141 358.67969 C 493.1435 364.39336 494.6429 370.08356 496.35938 375.37305 C 497.21761 378.01779 498.13118 380.5616 499.11914 382.95898 C 500.1071 385.35637 501.16998 387.60629 502.33008 389.66211 C 503.49018 391.71793 504.74644 393.57918 506.12109 395.19922 C 507.49575 396.81926 508.98946 398.19901 510.62109 399.28906 C 511.43691 399.83409 512.28581 400.3063 513.17383 400.70117 C 514.06184 401.09604 514.98761 401.41355 515.95312 401.64648 C 516.91864 401.87942 517.92434 402.02867 518.97266 402.08789 C 520.02097 402.14711 521.11163 402.1165 522.24805 401.99023 C 524.52089 401.7377 526.88054 401.10927 529.29297 400.14844 C 531.7054 399.18761 534.1723 397.8929 536.65625 396.30664 C 539.1402 394.72039 541.6415 392.84366 544.12891 390.71484 C 546.61631 388.58603 549.08893 386.2057 551.51172 383.61719 C 553.93451 381.02867 556.30755 378.23098 558.59766 375.26562 C 560.88776 372.30027 563.09424 369.16752 565.18359 365.9082 C 567.27295 362.64888 569.24586 359.2634 571.06641 355.79297 C 572.88695 352.32254 574.5554 348.76664 576.03906 345.16797 C 577.52272 341.5693 578.82168 337.92725 579.90039 334.2832 C 580.9791 330.63916 581.83766 326.99328 582.44336 323.38672 C 583.04906 319.78016 583.40218 316.21277 583.4668 312.72656 C 583.53141 309.24035 583.30821 305.83573 582.76367 302.55273 C 582.4914 300.91124 582.13849 299.29977 581.70117 297.72461 C 581.26385 296.14945 580.74174 294.60979 580.13086 293.11133 C 579.51998 291.61287 578.82029 290.15554 578.02734 288.74414 C 577.2344 287.33274 576.34875 285.96828 575.36523 284.6543 C 574.38172 283.34031 573.29979 282.07731 572.11719 280.87109 C 570.93459 279.66488 569.64996 278.51582 568.25977 277.42773 C 566.86957 276.33965 565.37387 275.31311 563.76758 274.35352 C 562.16129 273.39392 560.44614 272.50044 558.61523 271.67969 C 556.78433 270.85894 555.02786 269.97893 553.3457 269.04492 C 551.66354 268.11091 550.05539 267.12297 548.51562 266.08594 C 545.43609 264.01187 542.63401 261.74312 540.08594 259.31836 C 537.87137 257.21096 535.92906 254.94145 534.08008 252.62695 A 250 250 0 0 0 500 250 A 250 250 0 0 0 322.75781 323.95117 z "
       id="path862"
       transform="translate(0,32.41665)" />
    <text
       xml:space="preserve"
       style="font-style:normal;font-weight:normal;font-size:5.33333349px;line-height:1.25;font-family:sans-serif;letter-spacing:0px;word-spacing:0px;fill:#ffffff;fill-opacity:1;stroke:#000000;stroke-opacity:1;stroke-width:0.2;stroke-miterlimit:4;stroke-dasharray:none;stroke-linejoin:round;paint-order:stroke markers fill;"
       x="433.78391"
       y="323.41898"
       id="text995"
       transform="rotate(-5.1220807)"><tspan
         sodipodi:role="line"
         x="433.78391"
         y="323.41898"
         id="tspan1001">loonatheworld</tspan></text>
  </g>
</svg>
